<svg width="1512" height="719" viewBox="0 0 1512 719" fill="none" xmlns="http://www.w3.org/2000/svg">
<g clip-path="url(#clip0_322_422)">
<path d="M879.271 384.239C883.453 358.518 899.026 337.549 917.771 329.739C936.517 321.928 951.126 378.788 969.871 370.978C988.616 363.167 1072.77 349.477 1101.87 388.947C1130.97 428.417 1109.64 402.245 1072.77 470.239C1035.9 538.233 903.56 512.958 935.771 470.239C983.871 406.449 872.823 423.903 879.271 384.239Z" fill="#F7A600" fill-opacity="0.4"/>
<path d="M444.411 755.874C465.388 802.271 471.878 845.984 463.003 868.533L440.279 926.273C431.405 948.822 347.649 1100.65 353.93 962.91C360.21 825.166 226.213 836.333 193.282 701.182C160.352 566.031 245.835 606.739 312.791 634.861C363.081 655.984 412.064 684.326 444.411 755.874Z" fill="#F7A600" fill-opacity="0.5"/>
<path d="M1394.25 322.822C1400.06 283.493 1421.71 251.43 1447.76 239.487L1514.47 208.906C1540.52 196.963 1745.17 125.571 1644.41 216.551C1543.65 307.531 1714.41 350.354 1663.17 454.322C1611.93 558.291 1535.32 498.559 1472.77 454.322C1425.8 421.097 1385.29 383.471 1394.25 322.822Z" fill="#F7A600" fill-opacity="0.5"/>
<path d="M-184.873 441.959C-179.643 398.709 -160.164 363.449 -136.718 350.316L-76.6808 316.685C-53.2347 303.551 130.949 225.041 40.2673 325.093C-50.4144 425.144 103.272 472.237 57.1528 586.572C11.0334 700.906 -57.9122 635.219 -114.204 586.572C-156.484 550.033 -192.94 508.656 -184.873 441.959Z" fill="#F7A600" fill-opacity="0.5"/>
<path d="M643.957 0H0C0 0 159.378 62.9803 343.444 65.4901C533.768 68.0851 541.659 7.60064 732.203 5.77854C846.093 4.68945 897.236 23.2265 1011.25 23.1141C1123.49 23.0035 1173.46 4.54989 1285.53 5.77854C1470.87 7.81038 1492.13 82.47 1657.59 65.4901C1778.79 53.053 1784 0 1784 0H643.957Z" fill="url(#paint0_linear_322_422)"/>
<path d="M611.775 0H66C66 0 201.078 62.9803 357.08 65.4901C518.386 68.0851 525.075 7.60064 686.567 5.77854C783.092 4.68945 826.437 23.2265 923.07 23.1141C1018.19 23.0035 1060.54 4.54989 1155.53 5.77854C1312.61 7.81038 1330.63 82.47 1470.87 65.4901C1573.58 53.053 1578 0 1578 0H611.775Z" fill="url(#paint1_linear_322_422)"/>
</g>
<defs>
<linearGradient id="paint0_linear_322_422" x1="892" y1="0" x2="892" y2="68" gradientUnits="userSpaceOnUse">
<stop offset="0.289" stop-color="#F7A600" stop-opacity="0.6"/>
<stop offset="1" stop-color="#E49800" stop-opacity="0.7"/>
</linearGradient>
<linearGradient id="paint1_linear_322_422" x1="822" y1="0" x2="822" y2="68" gradientUnits="userSpaceOnUse">
<stop offset="0.289" stop-color="#F7A600" stop-opacity="0.6"/>
<stop offset="1" stop-color="#E49800" stop-opacity="0.7"/>
</linearGradient>
<clipPath id="clip0_322_422">
<rect width="1512" height="719" fill="white"/>
</clipPath>
</defs>
</svg>
