<svg width="2047" height="982" viewBox="0 0 2047 982" fill="none" xmlns="http://www.w3.org/2000/svg">
<path d="M1177.27 309.239C1181.45 283.518 1197.03 262.549 1215.77 254.739C1234.52 246.928 1249.13 303.788 1267.87 295.978C1286.62 288.167 1370.77 274.477 1399.87 313.947C1428.97 353.417 1407.64 327.245 1370.77 395.239C1333.9 463.233 1201.56 437.958 1233.77 395.239C1281.87 331.449 1170.82 348.903 1177.27 309.239Z" fill="#F7A600"/>
<path d="M776.411 712.874C797.388 759.271 803.878 802.984 795.003 825.533L772.279 883.273C763.405 905.822 679.649 1057.65 685.93 919.91C692.21 782.166 558.213 793.333 525.282 658.182C492.352 523.031 577.835 563.739 644.791 591.861C695.081 612.984 744.064 641.326 776.411 712.874Z" fill="#F7A600"/>
<path d="M1768.25 151.822C1774.06 112.493 1795.71 80.4299 1821.76 68.4871L1888.47 37.9055C1914.52 25.9627 2119.17 -45.429 2018.41 45.5509C1917.65 136.531 2088.41 179.354 2037.17 283.322C1985.93 387.291 1909.32 327.559 1846.77 283.322C1799.8 250.097 1759.29 212.471 1768.25 151.822Z" fill="#F7A600"/>
<path d="M1.32338 316.899C7.46733 266.152 30.3466 224.781 57.8865 209.37L128.407 169.91C155.947 154.5 372.289 62.382 265.774 179.775C159.259 297.169 339.78 352.425 285.608 486.577C231.436 620.73 150.452 543.657 84.3316 486.577C34.669 443.706 -8.15117 395.156 1.32338 316.899Z" fill="#F7A600"/>
</svg>
